<?xml version="1.0"?>
<svg xmlns="http://www.w3.org/2000/svg" style="display: none;">
  
    <symbol id="ic-home" viewBox="0 0 512 512">
      <path d="m480 263c6 6 8 10 6 14c-2 4-6 6-14 6c0 0-43 0-43 0c0 0 0 158 0 158c0 5 0 9 0 11c-1 2-2 5-4 7c-3 2-7 3-12 3c0 0-105 0-105 0c0 0 0-159 0-159c0 0-104 0-104 0c0 0 0 159 0 159c0 0-99 0-99 0c-10 0-16-2-18-5c-3-4-4-9-4-16c0 0 0-158 0-158c0 0-43 0-43 0c-7 0-12-2-14-6c-1-4 0-8 6-14c0 0 205-206 205-206c5-5 12-8 19-8c8 0 14 3 20 8c0 0 204 206 204 206"/>
    </symbol>
  
    <symbol id="ic-line-chart" viewBox="0 0 512 512">
      <path d="m549 439l0 36-586 0 0-438 37 0 0 402z m-37-357l0 125c0 4-2 6-6 8-3 2-7 1-10-2l-34-35-181 181c-2 2-4 3-7 3-2 0-4-1-6-3l-67-66-119 118-55-54 168-168c1-1 4-2 6-2 3 0 5 1 7 2l66 67 133-133-35-34c-3-3-3-7-2-10 2-4 5-6 9-6l124 0c3 0 5 1 6 3 2 1 3 4 3 6z"/>
    </symbol>
  
    <symbol id="ic-log-in" viewBox="0 0 512 512">
      <path d="m256 32c-96 0-177 60-209 144l34 0c10-20 23-39 39-56 36-36 85-56 136-56 51 0 99 20 136 56 36 37 56 85 56 136 0 51-20 100-56 136-37 36-85 56-136 56-51 0-100-20-136-56-16-17-29-36-39-56l-34 0c32 84 113 144 209 144 124 0 224-100 224-224 0-124-100-224-224-224z m-49 292l22 23 91-91-91-91-22 23 52 52-227 0 0 32 227 0z"/>
    </symbol>
  
    <symbol id="ic-log-out" viewBox="0 0 512 512">
      <path d="m367 324l22 23 91-91-91-91-22 23 52 52-227 0 0 32 227 0z m24 68c-36 36-84 56-135 56-52 0-100-20-136-56-36-36-56-85-56-136 0-51 20-99 56-136 36-36 84-56 136-56 51 0 99 20 135 56 3 3 5 5 8 8l41 0c-41-58-108-96-184-96-124 0-224 100-224 224 0 124 100 224 224 224 76 0 143-38 184-96l-41 0c-3 3-5 5-8 8z"/>
    </symbol>
  
    <symbol id="ic-tax" viewBox="0 0 512 512">
      <path d="m220 374c0 75 60 135 135 135 74 0 134-60 134-135 0-74-60-134-134-134-75 0-135 60-135 134z m82-52c4-3 8-5 13-5 5 0 9 2 13 5 3 3 5 8 5 13 0 4-2 9-5 12-4 4-8 6-13 6-5 0-9-2-13-6-3-3-5-8-5-12 0-5 2-10 5-13z m105 105c-3 3-8 5-12 5-5 0-10-2-13-5-3-3-5-8-5-13 0-4 2-9 5-12 3-4 8-6 13-6 4 0 9 2 12 6 4 3 6 8 6 12 0 5-2 10-6 13z m0-105c7 7 7 18 0 25l-79 80c-4 3-8 5-13 5-4 0-9-2-13-5-7-7-7-18 0-26l80-79c7-7 18-7 25 0z m-223 52c0-94 77-170 171-170 3 0 6 0 9 0l0-186c0-10-8-18-18-18l-306 0c-9 0-17 8-17 18l0 476c0 10 8 18 17 18l214 0c-42-31-70-81-70-138z m-60-279l127 0c10 0 18 8 18 18 0 10-8 18-18 18l-127 0c-10 0-18-8-18-18 0-10 8-18 18-18z m0 95l127 0c10 0 18 8 18 18 0 10-8 18-18 18l-127 0c-10 0-18-8-18-18 0-10 8-18 18-18z m32 132l-32 0c-10 0-18-8-18-18 0-10 8-18 18-18l32 0c10 0 18 8 18 18 0 10-8 18-18 18z"/>
    </symbol>
  
    <symbol id="ic-content" viewBox="0 0 512 512">
      <path d="m32 32l0 448c0 18 14 32 32 32l32 0l0-512l-32 0c-18 0-32 14-32 32m96 480l352 0l0-512l-352 0z m256-320l-128 0l0-96l128 0z"/>
    </symbol>
  
    <symbol id="ic-people" viewBox="0 0 512 512">
      <path d="m349 335c12 4-11-4 0 0z m0 0c-13-5-28-5-41-10-4-1-13-3-14-8-2-4-2-10-2-14 0-4 0-8 0-12 0-2 6-8 7-10 6-9 6-21 7-31 9 2 10-14 12-19 1-3 7-27-3-23 2-5 3-10 4-15 2-13 3-27-1-39-8-26-33-41-59-42-27-1-54 12-64 38-5 13-4 26-3 39 1 6 2 13 5 19-10-3-4 17-3 21 1 5 3 23 12 21 1 8 2 16 4 24 1 5 4 10 8 14 2 2 3 2 3 5-1 8 0 16-2 24-2 7-19 10-26 12-18 3-34 5-49 16-18 13-27 33-27 55 83 0 167 0 250 0 9 0 19 0 28 0 0-29-18-55-46-65z m-206-12c1-1 2-1 2-1 0 0-1 0-1 0 0 0 0 0-1 1z m0 0c-3 1-7 3 1-1 3-1 3-1 1 0 7-3 14-4 21-5 3 0 4-2 2-5-4-5-17-6-23-8-4-2-5-3-5-7 0-2-1-10 0-11 1-1 7-1 9-1 6-1 11-2 17-4 2-1 4-2 6-3 3-2-2-6-3-9-3-7-5-16-5-24-1-16 1-32-2-48-4-25-23-37-47-37-15 0-30 5-38 18-9 15-9 32-8 49 0 9 1 18-1 28 0 4-1 8-3 11-1 3-6 10-4 12 8 6 22 8 32 7 0 5 1 11 0 16-3 7-24 9-30 11-18 6-31 20-31 40 18 0 37 0 55 0 8 0 16 0 25 0 1 0 6-9 7-11 7-7 15-14 24-18z m306-11c-8-3-23-3-29-10-3-4-1-13-1-17 4 0 9 0 14-1 4-1 8-1 12-3 1 0 3-1 5-2 4-2 2-3 0-6-11-19-6-42-7-62 0-17-4-35-20-44-13-9-34-9-48-3-43 17-18 73-32 105-3 6-6 8 0 11 4 2 7 3 11 4 6 1 12 2 18 2 1 0 0 13 0 14-1 5-12 6-16 7-4 2-11 2-13 6-3 7 10 5 13 6 11 1 20 7 28 14 6 5 14 11 16 19 27 0 54 0 80 0 0-20-13-34-31-40z"/>
    </symbol>
  
    <symbol id="ic-cube" viewBox="0 0 512 512">
      <path d="m467 168c-2 0-3 0-5 1l-2 1-172 89-3 2c0 0 0 0 0 0-8 5-13 13-13 22l0 185c0 7 6 12 13 12 2 0 4-1 6-1 0 0 0-1 0-1l175-92 0-1c9-4 14-12 14-22l0-183c0-7-6-12-13-12z m-13-49l-181-82c0 0-11-5-17-5-6 0-17 5-17 5l-181 82c0 0-8 3-8 9 0 7 8 12 8 12l183 96 2 1c4 2 8 3 13 3 5 0 9-1 13-3l2-1 183-97c0 0 8-4 8-11 0-6-8-9-8-9z m-227 142l-4-2-171-89-2-1c-2-1-3-1-5-1-7 0-13 5-13 12l0 183c0 10 5 18 14 22l0 1 175 92c2 1 4 2 6 2 7 0 13-5 13-12l0-185c0-9-5-17-13-22z"/>
    </symbol>
  
    <symbol id="ic-switch" viewBox="0 0 512 512">
      <path d="m358 132c0 0 0 72 0 72c0 0-256 0-256 0c0 0 0 46 0 46c0 0-102-82-102-82c0 0 102-87 102-87c0 0 0 51 0 51c0 0 256 0 256 0m154 215c0 0-102 82-102 82c0 0 0-46 0-46c0 0-256 0-256 0c0 0 0-72 0-72c0 0 256 0 256 0c0 0 0-51 0-51c0 0 102 87 102 87"/>
    </symbol>
  
    <symbol id="ic-gear" viewBox="0 0 512 512">
      <path d="m416 256c0-21 13-39 32-46-5-20-13-40-24-57-6 3-13 4-20 4-12 0-25-5-35-14-14-15-18-37-10-55-17-11-36-19-57-24-7 19-25 32-46 32-21 0-39-13-46-32-21 5-40 13-57 24 8 18 4 40-10 55-10 9-23 14-35 14-7 0-14-1-20-4-11 17-19 37-24 57 19 7 32 25 32 46 0 21-13 39-32 46 5 21 13 40 24 57 6-3 13-4 20-4 12 0 25 5 35 14 14 15 18 37 10 55 17 11 36 19 57 24 7-18 25-32 46-32 21 0 39 14 46 32 21-5 40-13 57-24-8-18-4-40 10-55 10-9 23-14 35-14 7 0 14 1 20 4 11-17 19-36 24-57-19-7-32-25-32-46z m-159 80c-44 0-80-36-80-80 0-44 36-80 80-80 44 0 80 36 80 80 0 44-36 80-80 80z"/>
    </symbol>
  
    <symbol id="ic-notification" viewBox="0 0 512 512">
      <path d="m256 464c23 0 41-19 41-42l-82 0c0 23 18 42 41 42z m135-125l0-114c0-64-45-118-104-131l0-15c0-17-13-31-31-31-18 0-31 14-31 31l0 15c-59 13-104 67-104 131l0 114-41 42 0 21 352 0 0-21z"/>
    </symbol>
  
    <symbol id="ic-plus" viewBox="0 0 512 512">
      <path d="m416 277l-139 0 0 139-42 0 0-139-139 0 0-42 139 0 0-139 42 0 0 139 139 0z"/>
    </symbol>
  
    <symbol id="ic-chevron-left" viewBox="0 0 512 512">
      <path d="m214 256l167-174c4-4 4-11 0-16l-30-30c-4-5-11-5-16-1l-204 213c-2 2-3 5-3 8 0 3 1 6 3 8l204 213c5 4 12 4 16 0l30-31c4-4 4-11 0-16z"/>
    </symbol>
  
    <symbol id="ic-chevron-right" viewBox="0 0 512 512">
      <path d="m298 256l-167-174c-4-4-4-11 0-16l30-30c5-5 12-5 16-1l204 213c2 2 3 5 3 8 0 3-1 6-3 8l-204 213c-4 4-11 4-16 0l-30-31c-4-4-4-11 0-16z"/>
    </symbol>
  
    <symbol id="ic-banknote" viewBox="0 0 512 512">
      <path d="m503 169l-160-160c-8-8-20-11-31-8c-5 1-11 4-15 8c-3 4-6 9-8 14c-7 23-19 43-38 62c-25 25-57 43-91 63c-36 21-74 43-104 74c-26 26-44 55-55 89c-3 11 0 23 8 32l160 160c8 8 20 11 31 8c5-1 11-4 15-8c3-4 6-8 8-14c7-23 19-43 38-62c25-25 57-43 91-63c36-21 74-43 104-74c26-26 44-55 55-89c3-11 0-23-8-32z m-311 311c-53-53-107-107-160-160c45-147 243-141 288-288c53 53 107 107 160 160c-45 147-243 141-288 288z m121-242c-5-4-10-7-16-8c-5-2-10-2-16-2c-5 0-10 2-16 4c-5 2-10 4-16 7c-8-10-17-20-26-29c4-4 8-5 12-6c3 0 7 1 10 2c3 0 7 1 9 2c3 0 6 0 8-2c2-2 4-5 4-8c0-3-1-6-4-9c-3-4-7-6-12-7c-5-1-10-1-15 0c-5 1-10 3-15 6c-4 3-8 5-10 8c-2-1-3-2-4-3c-1-1-2-2-4-2c-2 0-3 1-4 3c-1 1-2 2-2 4c0 2 1 3 2 4c1 1 2 2 3 3c-4 5-7 10-10 16c-2 6-4 11-5 17c0 6 0 11 2 15c2 5 5 9 10 13c7 6 16 9 26 8c11 0 22-3 33-10c10 11 19 22 29 32c-4 4-8 6-11 6c-3 1-6 1-8 0c-3-1-5-2-7-3c-2-2-4-3-6-4c-2-1-5-2-7-2c-2 0-4 1-7 3c-2 3-4 5-4 8c0 3 2 6 4 9c3 4 7 6 11 8c4 2 9 3 14 4c6 0 11-1 17-3c6-2 12-6 18-12c2 3 5 6 8 8c1 1 3 2 4 2c2-1 4-1 5-3c1-1 1-3 1-4c0-2-1-3-2-4c-3-3-5-5-8-7c5-6 8-12 11-19c3-6 5-12 5-17c1-6 0-11-1-15c-2-5-5-9-10-13z m-89 11c-5 0-9-1-12-4c-2-2-3-4-4-6c0-2 0-4 0-6c0-3 1-5 2-8c1-2 3-5 5-7c8 8 16 17 25 26c-7 3-12 5-16 5z m75 32c-1 3-3 5-5 7c-9-9-18-19-27-29c2-1 5-2 7-3c3-1 6-2 8-2c3-1 5-1 8 0c3 1 5 2 7 4c3 3 4 5 5 7c0 3 0 6 0 8c-1 3-2 6-3 8z m-64 74l0 0c-10 8-19 16-28 25c-9 8-17 18-24 27l-11 15l0 0c-2 3-1 7 1 10c4 3 9 3 12 0c0-1 1-1 1-2l10-14c7-8 14-17 22-25c9-9 17-16 27-24l0 0c1 0 1 0 1 0c3-3 3-8 0-12c-3-3-7-3-11 0z m59-232c-8 9-17 16-27 24c0 0-1 0-2 1c-3 3-3 8 0 11c3 3 8 3 12 1l0 0c10-8 19-16 28-25c9-9 17-18 24-27l11-15l0 0c2-4 2-8-1-11c-3-4-8-4-11 0c-1 0-1 1-2 2l-10 14c-7 9-14 17-22 25z"/>
    </symbol>
  
    <symbol id="ic-drag" viewBox="0 0 512 512">
      <path d="m0 144l512 0 0 32-512 0z m0 96l512 0 0 32-512 0z m0 96l512 0 0 32-512 0z"/>
    </symbol>
  
    <symbol id="ic-upload" viewBox="0 0 512 512">
      <path d="m398 233c0-1 0-2 0-3 0-65-51-118-115-118-46 0-86 27-105 67-8-4-17-6-26-6-30 0-55 21-59 50-36 12-61 46-61 86 0 50 40 91 90 91l102 0 0-80-48 0 80-84 80 84-48 0 0 80 110 0c46 0 82-38 82-83 0-46-37-84-82-84z"/>
    </symbol>
  
    <symbol id="ic-file-text-o" viewBox="0 0 512 512">
      <path d="m456 109c5 5 10 12 14 21 4 9 5 18 5 25l0 330c0 7-2 14-8 19-5 5-11 8-19 8l-384 0c-8 0-14-3-19-8-6-5-8-12-8-19l0-458c0-7 2-14 8-19 5-5 11-8 19-8l256 0c8 0 16 2 25 6 9 4 17 8 22 13z m-127-70l0 107 108 0c-2-5-4-9-7-11l-89-90c-2-2-6-4-12-6z m110 436l0-292-119 0c-8 0-14-3-19-8-6-5-8-12-8-20l0-118-220 0 0 438z m-293-246c0-3 1-5 3-7 2-2 4-3 6-3l202 0c2 0 4 1 6 3 2 2 3 4 3 7l0 18c0 3-1 5-3 6-2 2-4 3-6 3l-202 0c-2 0-4-1-6-3-2-1-3-3-3-6z m211 64c2 0 4 0 6 2 2 2 3 4 3 7l0 18c0 3-1 5-3 7-2 1-4 2-6 2l-202 0c-2 0-4-1-6-2-2-2-3-4-3-7l0-18c0-3 1-5 3-7 2-2 4-2 6-2z m0 73c2 0 4 1 6 2 2 2 3 4 3 7l0 18c0 3-1 5-3 7-2 1-4 2-6 2l-202 0c-2 0-4-1-6-2-2-2-3-4-3-7l0-18c0-3 1-5 3-7 2-1 4-2 6-2z"/>
    </symbol>
  
    <symbol id="ic-trash-b" viewBox="0 0 512 512">
      <path d="m414 133c-3-9-4-14-4-14-3-9-9-9-19-10l-53-7c-7-1-7-1-10-7-8-20-11-31-20-31l-103 0c-10 0-13 11-21 31-3 6-3 6-9 7l-54 7c-9 1-16 2-19 11 0 0-1 5-4 13-3 12-4 11 7 11l302 0c11 0 10 1 7-11z m-35 43l-246 0c-17 0-18 2-17 15l19 242c2 13 3 15 17 15l208 0c14 0 16-2 17-15l19-242c1-13 0-15-17-15z"/>
    </symbol>
  
    <symbol id="ic-share" viewBox="0 0 512 512">
      <path d="m352 378l-250 0 0-180 58 0c0 0 14-19 43-38l-120 0c-10 0-19 9-19 19l0 218c0 11 9 19 19 19l288 0c11 0 19-8 19-19l0-109-38 31z m-32-154l0 64 128-96-128-96 0 60c-155 0-160 164-160 164 44-71 76-96 160-96z"/>
    </symbol>
  
    <symbol id="ic-plus-circled" viewBox="0 0 512 512">
      <path d="m256 32c-124 0-224 100-224 224 0 124 100 224 224 224 124 0 224-100 224-224 0-124-100-224-224-224z m128 240l-112 0 0 112-32 0 0-112-112 0 0-32 112 0 0-112 32 0 0 112 112 0z"/>
    </symbol>
  
    <symbol id="ic-minus-circled" viewBox="0 0 512 512">
      <path d="m256 32c-124 0-224 100-224 224 0 124 100 224 224 224 124 0 224-100 224-224 0-124-100-224-224-224z m128 240l-256 0 0-32 256 0z"/>
    </symbol>
  
    <symbol id="ic-loop" viewBox="0 0 512 512">
      <path d="m273 301l0 58c49-9 86-51 86-103 0-16-3-31-10-44-2-6-6-12-9-17l47-43c1 1 2 2 3 4 21 28 33 62 33 100 0 1 0 3 0 4-1 71-48 132-111 154-13 5-26 8-39 9l0 57-76-67-26-23 44-39z m-184-49c2-72 48-133 113-155 12-4 24-7 37-8l0-57 76 67 26 23-44 39-59 51 1-58c-49 8-86 51-86 102 0 16 3 31 10 45 2 6 6 11 9 16l-47 44c-1-2-2-4-3-5-21-28-33-63-33-100 0-1 0-2 0-4z"/>
    </symbol>
  
    <symbol id="ic-out" viewBox="0 0 512 512">
      <path d="m480 224c-18 0-32 14-32 32l0 192l-384 0l0-192c0-18-14-32-32-32c-18 0-32 14-32 32l0 224c0 18 14 32 32 32l448 0c18 0 32-14 32-32l0-224c0-18-14-32-32-32z m-256 96c0 18 14 32 32 32c18 0 32-14 32-32l0-192l96 0l-128-128l-128 128l96 0z"/>
    </symbol>
  
    <symbol id="ic-in" viewBox="0 0 512 512">
      <path d="m480 224c-18 0-32 14-32 32l0 192l-384 0l0-192c0-18-14-32-32-32c-18 0-32 14-32 32l0 224c0 18 14 32 32 32l448 0c18 0 32-14 32-32l0-224c0-18-14-32-32-32z m-192 0l0-196c0-15-14-28-32-28c-18 0-32 13-32 28l0 196l-96 0l128 128l128-128z"/>
    </symbol>
  
    <symbol id="ic-list" viewBox="0 0 512 512">
      <path d="m0 103l510 0l0 27l-510 0z m0 93l510 0l0 26l-510 0z m1 92l511 0l0 27l-511 0z m3 94l504 0l0 27l-504 0z"/>
    </symbol>
  
    <symbol id="ic-flag" viewBox="0 0 512 512">
      <path d="m426 183c-35 5-94 7-133-67-41-79-108-81-148-74-19 4-33 20-33 35l0 197c11 4 23 0 26-1 1 0 2 0 3-1 25-5 51-8 117 24 82 39 153-33 181-84 2-3 9-20 9-36-10 4-22 7-22 7z m-338-151l-16 0c-4 0-8 4-8 8l0 432c0 4 4 8 8 8l16 0c4 0 8-4 8-8l0-432c0-4-4-8-8-8z"/>
    </symbol>
  
    <symbol id="ic-close" viewBox="0 0 512 512">
      <path d="m444 387l-132-132 132-130c5-5 5-14 0-19l-37-38c-3-2-7-4-10-4-4 0-7 2-10 4l-131 130-131-130c-3-2-6-4-10-4-4 0-7 2-10 4l-37 38c-5 5-5 14 0 20l132 130-132 131c-2 3-4 6-4 10 0 4 2 7 4 10l38 37c3 3 6 4 10 4 3 0 7-1 9-4l131-131 131 131c2 3 6 4 10 4 3 0 7-1 9-4l38-37c2-3 4-6 4-10 0-4-2-7-4-10z"/>
    </symbol>
  
    <symbol id="ic-arrow-down-b" viewBox="0 0 512 512">
      <path d="m99 185l2 2 136 156c4 6 11 9 19 9 8 0 15-3 19-9l136-156 2-2c2-3 3-6 3-9 0-9-7-16-17-16l-286 0c-10 0-17 7-17 16 0 3 1 6 3 9z"/>
    </symbol>
  
    <symbol id="ic-image" viewBox="0 0 512 512">
      <path d="m368 224c27 0 48-21 48-48 0-26-21-48-48-48-26 0-48 22-48 48 0 27 22 48 48 48z m84-160l-392 0c-16 0-28 13-28 28l0 328c0 15 12 28 28 28l392 0c16 0 28-13 28-28l0-328c0-15-12-28-28-28z m-103 198c-3-4-8-6-13-6-5 0-9 2-13 5l-18 16c-4 3-7 5-12 5-4 0-8-2-11-4-1-1-3-3-4-4l-54-59c-4-4-10-7-17-7-6 0-13 3-16 8l-127 152 0-260c1-7 6-12 13-12l358 0c7 0 12 5 13 12l0 260z"/>
    </symbol>
  
    <symbol id="ic-android-print" viewBox="0 0 512 512">
      <path d="m400 160l-288 0c-35 0-64 29-64 64l0 139 80 0 0 85 256 0 0-85 80 0 0-139c0-35-29-64-64-64z m-48 256l-192 0 0-128 192 0z m32-352l-256 0 0 80 256 0z"/>
    </symbol>
  
    <symbol id="ic-ios-copy" viewBox="0 0 512 512">
      <path d="m144 416l0-304-32 0 0 336 240 0 0-32z m181-352l-165 0 0 336 240 0 0-261z m43 112l-80 0 0-80 16 0 0 64 64 0z"/>
    </symbol>
  
    <symbol id="ic-document-text" viewBox="0 0 512 512">
      <path d="m399 169c-1-2-2-4-4-6l-84-92c-2-2-4-3-6-4-3-2-6-3-10-3l-160 0c-12 0-22 11-22 24l0 336c0 13 10 24 22 24l243 0c13 0 23-11 23-24l0-245c0-3-1-7-2-10z m-238 10c0-2 1-2 3-2l71 0c1 0 3 0 3 2l0 10c0 2-2 4-3 4l-71 0c-2 0-3-2-3-4z m0 128c0-2 1-2 3-2l122 0c2 0 3 0 3 2l0 10c0 2-1 4-3 4l-122 0c-2 0-3-2-3-4z m160 74c0 2-1 4-3 4l-154 0c-2 0-3-2-3-4l0-10c0-2 1-2 3-2l154 0c2 0 3 0 3 2z m32-128c0 2-1 4-3 4l-186 0c-2 0-3-2-3-4l0-10c0-2 1-2 3-2l186 0c2 0 3 0 3 2z m-47-75c-6 0-11-6-11-12l0-66 71 78z"/>
    </symbol>
  
    <symbol id="ic-clipboard" viewBox="0 0 512 512">
      <path d="m161 161l192 0c-2-20-10-36-28-41 0 0-1 0-1 0-12-4-21-8-21-21l0-21c0-25-21-46-47-46-25 0-45 21-45 46l0 21c0 13-9 17-21 20-1 1-1 1-1 1-19 5-26 21-28 41z m96-97c8 0 14 7 14 14 0 8-6 14-14 14-8 0-14-6-14-14 0-7 6-14 14-14z m149 0l-74 0 0 13c0 11 9 20 19 20l37 0c7 0 12 5 13 12l0 327c-1 6-6 11-12 12l-264 0c-6-1-11-6-12-12l0-327c1-7 6-12 13-12l37 0c10 0 19-9 19-20l0-13-74 0c-15 0-27 12-27 28l0 360c0 15 12 29 27 29l298 0c15 0 27-14 27-29l0-360c0-16-12-28-27-28z m-261 129l112 0 0 32-112 0z m0 192l160 0 0 32-160 0z m0-64l129 0 0 32-129 0z m0-64l208 0 0 32-208 0z"/>
    </symbol>
  
    <symbol id="ic-tag" viewBox="0 0 512 512">
      <path d="m165 128c0-10-4-19-11-26c-7-7-16-11-26-11c-10 0-19 4-26 11c-7 7-11 16-11 26c0 10 4 19 11 26c7 7 16 11 26 11c10 0 19-4 26-11c7-7 11-16 11-26z m304 165c0 10-3 18-10 25l-140 141c-8 7-17 10-26 10c-11 0-19-3-26-10l-204-205c-8-7-14-16-19-29c-5-12-7-23-7-33l0-119c0-10 3-18 10-26c8-7 16-10 26-10l119 0c10 0 21 2 33 7c13 5 22 11 30 19l204 204c7 7 10 16 10 26z"/>
    </symbol>
  
    <symbol id="ic-eye" viewBox="0 0 512 512">
      <path d="m256 128c-82 0-146 49-224 128 67 68 124 128 224 128 100 0 173-76 224-127-52-58-125-129-224-129z m0 219c-49 0-90-41-90-91 0-50 41-91 90-91 49 0 90 41 90 91 0 50-41 91-90 91z m0-123c0-8 3-15 8-21-3 0-5 0-8 0-29 0-52 24-52 53 0 29 23 53 52 53 29 0 52-24 52-53 0-2 0-5 0-7-6 4-12 7-20 7-18 0-32-14-32-32z"/>
    </symbol>
  
    <symbol id="ic-info" viewBox="0 0 512 512">
      <path d="m256 64c-106 0-192 86-192 192c0 106 86 192 192 192c106 0 192-86 192-192c0-106-86-192-192-192z m20 299c0 3-3 6-7 6l-26 0c-4 0-7-3-7-6l0-124c0-4 3-7 7-7l26 0c4 0 7 3 7 7z m-20-159c-13 0-23-10-23-23c0-13 10-23 23-23c13 0 23 10 23 23c0 13-10 23-23 23z"/>
    </symbol>
  
    <symbol id="ic-file-o" viewBox="0 0 512 512">
      <path d="m456 109c5 5 10 12 14 21 4 9 5 18 5 25l0 330c0 7-2 14-8 19-5 5-11 8-19 8l-384 0c-8 0-14-3-19-8-6-5-8-12-8-19l0-458c0-7 2-14 8-19 5-5 11-8 19-8l256 0c8 0 16 2 25 6 9 4 17 8 22 13z m-127-70l0 107 108 0c-2-5-4-9-7-11l-89-90c-2-2-6-4-12-6z m110 436l0-292-119 0c-8 0-14-3-19-8-6-5-8-12-8-20l0-118-220 0 0 438z"/>
    </symbol>
  
    <symbol id="ic-document" viewBox="0 0 512 512">
      <path d="m399 169c0-3-2-5-3-7l-84-92c-2-2-4-3-6-4-3-1-7-2-10-2l-160 0c-12 0-23 10-23 23l0 336c0 13 11 25 23 25l243 0c13 0 22-12 22-25l0-245c0-3-1-6-2-9z m-93-58l58 64-58 0z m-161 306l0-320 129 0 0 81c0 15 13 29 28 29l67 0 0 210z"/>
    </symbol>
  
    <symbol id="ic-navicon-round" viewBox="0 0 512 512">
      <path d="m417 224l-322 0c-17 0-31 14-31 32 0 18 14 32 31 32l322 0c17 0 31-14 31-32 0-18-14-32-31-32z m0-128l-322 0c-17 0-31 14-31 32 0 18 14 32 31 32l322 0c17 0 31-14 31-32 0-18-14-32-31-32z m0 256l-322 0c-17 0-31 14-31 32 0 18 14 32 31 32l322 0c17 0 31-14 31-32 0-18-14-32-31-32z"/>
    </symbol>
  
    <symbol id="ic-list-alt" viewBox="0 0 512 512">
      <path d="m110 338l0 19c0 2-1 4-3 6-2 2-4 3-6 3l-19 0c-2 0-4-1-6-3-2-2-3-4-3-6l0-19c0-2 1-4 3-6 2-2 4-3 6-3l19 0c2 0 4 1 6 3 2 2 3 4 3 6z m0-73l0 18c0 3-1 5-3 7-2 2-4 3-6 3l-19 0c-2 0-4-1-6-3-2-2-3-4-3-7l0-18c0-2 1-4 3-6 2-2 4-3 6-3l19 0c2 0 4 1 6 3 2 2 3 4 3 6z m0-73l0 18c0 3-1 5-3 7-2 2-4 2-6 2l-19 0c-2 0-4 0-6-2-2-2-3-4-3-7l0-18c0-2 1-5 3-6 2-2 4-3 6-3l19 0c2 0 4 1 6 3 2 1 3 4 3 6z m329 146l0 19c0 2-1 4-3 6-2 2-4 3-6 3l-275 0c-2 0-4-1-6-3-2-2-3-4-3-6l0-19c0-2 1-4 3-6 2-2 4-3 6-3l275 0c2 0 4 1 6 3 2 2 3 4 3 6z m0-73l0 18c0 3-1 5-3 7-2 2-4 3-6 3l-275 0c-2 0-4-1-6-3-2-2-3-4-3-7l0-18c0-2 1-4 3-6 2-2 4-3 6-3l275 0c2 0 4 1 6 3 2 2 3 4 3 6z m0-73l0 18c0 3-1 5-3 7-2 2-4 2-6 2l-275 0c-2 0-4 0-6-2-2-2-3-4-3-7l0-18c0-2 1-5 3-6 2-2 4-3 6-3l275 0c2 0 4 1 6 3 2 1 3 4 3 6z m36 201l0-238c0-2 0-4-2-6-2-2-4-3-7-3l-420 0c-3 0-5 1-7 3-2 2-2 4-2 6l0 238c0 3 0 5 2 7 2 1 4 2 7 2l420 0c3 0 5-1 7-2 2-2 2-4 2-7z m37-311l0 311c0 13-4 23-13 32-9 9-20 14-33 14l-420 0c-13 0-24-5-33-14-9-9-13-19-13-32l0-311c0-12 4-23 13-32 9-9 20-13 33-13l420 0c13 0 24 4 33 13 9 9 13 20 13 32z"/>
    </symbol>
  
    <symbol id="ic-category" viewBox="0 0 512 512">
      <path d="m320 320l0-128l-128 0l0 32l-64 0l0-64l32 0l0-128l-128 0l0 128l64 0l0 256l96 0l0 64l128 0l0-128l-128 0l0 32l-64 0l0-128l64 0l0 64z"/>
    </symbol>
  
    <symbol id="ic-usd" viewBox="0 0 512 512">
      <path d="m389 339c0 29-9 54-28 75-19 21-44 34-74 39l0 50c0 3-1 5-3 6-1 2-4 3-6 3l-39 0c-2 0-4-1-6-3-2-2-3-4-3-6l0-50c-13-2-25-5-36-9-12-4-22-8-29-13-8-4-15-9-22-13-6-5-10-9-13-11-2-2-4-4-5-5-3-4-3-8 0-12l29-39c1-1 4-3 7-3 2 0 5 0 6 3l1 0c22 19 45 31 69 36 7 1 15 2 22 2 15 0 29-4 40-12 12-8 18-20 18-35 0-5-2-10-4-15-3-5-6-9-10-12-4-3-9-7-17-11-7-4-14-7-19-9-5-2-12-5-22-9-8-3-14-6-18-7-4-2-10-5-18-8-7-3-13-6-17-9-5-2-10-6-17-10-6-4-11-8-15-12-4-4-8-9-12-14-5-6-8-11-10-17-3-5-5-12-6-19-2-7-3-14-3-22 0-26 9-49 28-69 19-20 43-33 73-38l0-52c0-2 1-4 3-6 2-2 4-3 6-3l39 0c2 0 5 1 6 3 2 1 3 3 3 6l0 50c11 2 21 4 31 7 11 3 19 6 25 10 7 3 13 6 18 10 6 4 10 7 12 9 1 1 3 2 4 4 3 3 4 7 1 10l-23 42c-1 3-4 5-6 5-3 0-6 0-8-2-1-1-2-2-4-4-2-1-6-4-11-7-6-4-11-7-17-9-6-3-13-6-21-8-9-2-17-3-25-3-18 0-33 4-44 12-12 8-17 19-17 32 0 5 1 9 2 14 2 4 5 8 9 11 4 4 7 7 11 10 3 2 9 5 16 9 7 3 13 6 17 7 5 2 11 5 20 8 10 4 18 7 23 9 6 2 13 6 22 10 9 5 16 9 22 12 5 4 11 9 17 15 7 6 12 12 15 18 4 6 7 13 9 22 3 8 4 17 4 27z"/>
    </symbol>
  
    <symbol id="ic-payment-terms" viewBox="0 0 512 512">
      <path d="m456 19l-18 0c1-1 1-2 1-4 0-8-6-15-15-15-8 0-15 7-15 15 0 2 1 3 1 4l-57 0c1-1 1-2 1-4 0-8-7-15-15-15-8 0-15 7-15 15 0 2 1 3 1 4l-57 0c1-1 1-2 1-4 0-8-7-15-15-15-8 0-15 7-15 15 0 2 1 3 1 4l-57 0c0-1 1-2 1-4 0-8-7-15-15-15-8 0-15 7-15 15 0 2 0 3 1 4l-57 0c0-1 1-2 1-4 0-8-7-15-15-15-8 0-15 7-15 15 0 2 0 3 1 4l-18 0c-23 0-42 20-42 43l0 403c0 24 19 43 42 43l356 0 90-91 0-355c0-23-19-43-42-43z m-85 47l5 19c1 2 2 5 2 7l0 0c1-2 2-5 2-7l5-19 12 0-8 25c-6 15-9 21-14 25-4 4-8 5-11 5l-3-10c2 0 4-1 6-2 1-1 3-3 4-5 1 0 1-1 1-1 0-1 0-1-1-2l-13-35z m-32 0l0 7 1 0c2-5 6-8 10-8 1 0 1 0 2 0l0 11c-1 0-2 0-3 0-4 0-7 2-8 6 0 1 0 2 0 3l0 19-12 0 0-25c0-6 0-10 0-13z m-40 7c-4 0-8 2-10 3l-3-7c3-2 8-4 15-4 13 0 17 8 17 17l0 13c0 3 0 7 0 9l-10 0-1-4 0 0c-3 3-7 5-11 5-8 0-12-6-12-12 0-10 8-14 22-14l0-1c0-2-1-5-7-5z m-60-7l12 0 0 20c0 6 1 9 6 9 3 0 5-2 5-4 1 0 1-1 1-2l0-23 12 0 0 26c0 5 0 9 0 12l-10 0-1-5 0 0c-1 2-5 6-12 6-8 0-13-5-13-17z m-38 0l1 5 0 0c2-2 6-6 12-6 8 0 14 5 14 17l0 22-12 0 0-21c0-5-2-8-6-8-3 0-5 2-6 4-1 1-1 2-1 3l0 22-11 0 0-26c0-5-1-9-1-12z m-39 7c-4 0-8 2-11 3l-2-7c3-2 8-4 15-4 12 0 16 8 16 17l0 13c0 3 0 7 1 9l-11 0 0-4-1 0c-2 3-6 5-11 5-7 0-12-6-12-12 0-10 9-14 22-14l0-1c0-2-1-5-6-5z m-50 21c1 1 3 1 6 1 5 0 8-2 8-10l0-33 12 0 0 33c0 15-7 20-19 20-3 0-6-1-9-1z m363 314l-5 4-36 0c-17 0-31 14-31 31l0 37-5 5-346 0c-10 0-19-9-19-20l0-325 442 0z m-317-316c0 3 2 5 4 5 3 0 6-2 7-5 0 0 0-1 0-2l0-4c-6 0-11 2-11 6z m137 0c0 3 2 5 5 5 3 0 5-2 6-5 0 0 0-1 0-2l0-4c-6 0-11 2-11 6z m-74 133l66 0 18-34c2-6 0-10-6-10l-89 0c-7 0-9 4-7 10z m15 89c0 6 4 11 12 15l0-27c-8 2-12 6-12 12z m24 43l0 25c8-1 12-5 12-12 0-5-4-10-12-13z m61-109l-133 0c-27 20-45 52-45 89 0 61 50 111 111 111 61 0 111-50 111-111 0-37-17-69-44-89z m-36 143c-6 6-14 10-25 11l0 18-12 0 0-18c-12 0-22-2-32-7l0-24c3 3 8 5 15 8 6 2 12 3 17 4l0-31c-13-5-22-10-27-16-5-5-7-12-7-20 0-9 3-16 9-23 6-6 15-9 25-10l0-16 12 0 0 15c12 1 21 3 26 6l0 23c-7-5-16-8-26-9l0 32c12 4 21 9 26 15 6 5 8 12 8 20 0 9-3 17-9 22z"/>
    </symbol>
  
    <symbol id="ic-payment-methods" viewBox="0 0 512 512">
      <path d="m492 282c4-6 7-14 5-21l-61-230c-4-13-17-21-30-18l-387 102c-14 4-22 18-18 31l60 229c4 14 18 22 31 18l137-36 0 77c0 43 71 65 141 65 71 0 142-22 142-65l0-117c0-14-8-25-20-35z m-44-79l6 24-77 20-6-24z m-45-151l12 45-120 32-12-46z m-54 177l6 23c-28 2-56 7-78 15l-5-18z m-268 96l-6-24 77-20 6 24z m93-50l77-20 5 22c-1 1-3 2-5 3l-71 19z m312 157c0 25-52 45-116 45-64 0-116-20-116-45l0-28c0-1 1-2 1-3 4 24 54 43 115 43 62 0 112-19 116-43 0 1 0 2 0 3z m0-55c0 25-52 45-116 45-64 0-116-20-116-45l0-29c0-1 1-2 1-2 4 23 54 42 115 42 62 0 112-19 116-42 0 0 0 1 0 2z m-116-14c-64 0-116-21-116-46 0-25 52-45 116-45 64 0 116 20 116 45 0 25-52 46-116 46z"/>
    </symbol>
  
    <symbol id="ic-company-profile" viewBox="0 0 512 512">
      <path d="m330 165c24 0 45-20 45-44 0-25-21-45-45-45-25 0-45 20-45 45 0 24 20 44 45 44z m179 112l-32-33c-2-1-4-2-7-2-3 0-5 1-7 2l-9 10c-1-1-1-1-1-2-5-4-11-6-17-6l-15-21c-4-6-11-13-16-18l-31-29c-3-2-7-5-12-5 0 0-55 0-56 0-7 0-13 4-16 10l-23 46c-2 3-6 9-9 12l-16 17c-4 4-5 9-5 14 0 5 2 10 6 13 3 4 8 5 13 5 5 0 10-2 13-6l17-17c5-5 11-14 14-21l4-7c0 0 5 27 6 36 0 1 0 1 0 1l-5 60c-1 6-1 16-1 23l2 60c1 11 9 20 20 20 0 0 1 0 1 0 11-1 19-10 19-21l-2-61c0-4 0-13 0-18l4-40 7 0 11 46c2 7 5 17 8 23l23 53c3 7 10 12 18 12 0 0 1 0 1 0 2 0 5-1 7-2 5-2 9-6 11-11 2-5 2-10 0-15l-23-53c-2-4-5-12-6-16l-20-95c2 2 4 4 5 6l16 21c1 2 3 4 5 5 0 6 2 11 6 15 1 0 1 1 2 1l-10 9c-2 2-3 5-3 7 0 3 1 5 3 7l32 32c2 2 5 3 7 3 3 0 5-1 7-3l54-54c2-1 3-4 3-7 0-2-1-5-3-6z m-84 3c-1-1-1-3-2-4 3-1 6-2 9-4 4-3 7-7 8-12 0-1 0-1 0-2 2 0 3 1 4 3 1 0 1 1 2 1l-19 19c-1-1-1-1-2-1z m-197 41l-10 0 0-211c0-6-4-10-9-10l-27 0 0-17c0-5-4-10-9-10l-108 0c-5 0-10 5-10 10l0 17-26 0c-5 0-10 4-10 10l0 211-10 0c-5 0-9 4-9 9l0 32c0 5 4 9 9 9l219 0c5 0 9-4 9-9l0-32c0-5-4-9-9-9z m-146-40c0 2-1 3-3 3l-35 0c-1 0-3-1-3-3l0-35c0-1 2-2 3-2l35 0c2 0 3 1 3 2z m0-56c0 2-1 3-3 3l-35 0c-1 0-3-1-3-3l0-35c0-1 2-2 3-2l35 0c2 0 3 1 3 2z m0-56c0 1-1 2-3 2l-35 0c-1 0-3-1-3-2l0-35c0-2 2-3 3-3l35 0c2 0 3 1 3 3z m57 160c0 1-1 2-3 2l-35 0c-1 0-2-1-2-2l0-83c0-1 1-2 2-2l35 0c2 0 3 1 3 2z m0-104c0 2-1 3-3 3l-35 0c-1 0-2-1-2-3l0-35c0-1 1-2 2-2l35 0c2 0 3 1 3 2z m0-56c0 1-1 2-3 2l-35 0c-1 0-2-1-2-2l0-35c0-2 1-3 2-3l35 0c2 0 3 1 3 3z m57 112c0 2-1 3-2 3l-36 0c-1 0-2-1-2-3l0-35c0-1 1-2 2-2l36 0c1 0 2 1 2 2z m0-56c0 2-1 3-2 3l-36 0c-1 0-2-1-2-3l0-35c0-1 1-2 2-2l36 0c1 0 2 1 2 2z m0-56c0 1-1 2-2 2l-36 0c-1 0-2-1-2-2l0-35c0-2 1-3 2-3l36 0c1 0 2 1 2 3z"/>
    </symbol>
  
    <symbol id="ic-tags" viewBox="0 0 512 512">
      <path d="m110 128c0-10-4-19-11-26-7-7-16-11-26-11-10 0-19 4-26 11-7 7-10 16-10 26 0 10 3 19 10 26 7 7 16 11 26 11 10 0 19-4 26-11 7-7 11-16 11-26z m305 165c0 10-4 18-11 25l-140 141c-8 7-16 10-26 10-10 0-19-3-26-10l-204-205c-8-7-14-16-19-29-5-12-7-23-7-33l0-119c0-10 3-18 11-26 7-7 15-10 25-10l119 0c10 0 21 2 34 7 12 5 21 11 29 19l204 204c7 7 11 16 11 26z m109 0c0 10-3 18-10 25l-141 141c-7 7-16 10-26 10-6 0-12-1-16-4-5-2-10-7-16-12l135-135c7-7 10-15 10-25 0-10-3-19-10-26l-205-204c-7-8-17-14-29-19-12-5-23-7-33-7l64 0c10 0 21 2 33 7 12 5 22 11 29 19l205 204c7 7 10 16 10 26z"/>
    </symbol>
  
    <symbol id="ic-balance" viewBox="0 0 512 512">
      <path d="m323 183l109-67c12-7 16-23 9-35-5-8-13-12-22-12-5 0-9 1-13 4l-103 63c0 0-106 0-107 0-3 0-7 1-10 2l-141 65c-13 6-18 21-13 34 5 9 14 14 24 14 3 0 7 0 10-2l115-53 0 287c0 16 13 29 29 29 16 0 29-13 29-29l0-151 26 0 0 151c0 16 13 29 29 29 16 0 29-13 29-29z m-68-58c35 0 63-28 63-62 0-35-28-63-63-63-34 0-62 28-62 63 0 34 28 62 62 62z m230 125l-50-103c-3-5-7-8-11-8-5 0-9 3-11 8l-51 103c-2 5-2 10 1 14 0 1 1 2 2 3 12 13 53 14 59 14 5 0 46-1 58-14 2-1 2-2 3-3 3-4 3-9 0-14z m-61-94l42 85c-17-5-38-5-42-5-4 0-25 0-42 5z m-325 109c-2-5-6-8-11-8-4 0-8 3-11 8l-50 103c-3 5-3 10 0 13 1 2 1 3 3 3 12 14 53 14 58 14 6 0 47 0 59-14 1 0 2-1 2-3 3-3 3-8 1-13z m-11 9l42 85c-17-5-38-5-42-5-4 0-25 0-42 5z"/>
    </symbol>
  
    <symbol id="ic-info-o" viewBox="0 0 512 512">
      <path d="m256 143c-20 0-34 12-34 31c0 18 14 30 34 30c21 0 34-12 34-30c0-19-13-31-34-31z m-32 81l64 0l0 145l-64 0z m32-196c-126 0-228 102-228 228c0 126 102 228 228 228c126 0 228-102 228-228c0-126-102-228-228-228z m0 399c-94 0-171-77-171-171c0-94 77-171 171-171c94 0 171 77 171 171c0 94-77 171-171 171z"/>
    </symbol>
  
    <symbol id="ic-clock-o" viewBox="0 0 512 512">
      <path d="m293 155l0 128c0 3-1 5-3 7-2 2-4 3-7 3l-91 0c-3 0-5-1-7-3-1-2-2-4-2-7l0-18c0-3 1-5 2-6 2-2 4-3 7-3l64 0 0-101c0-2 1-4 3-6 1-2 3-3 6-3l18 0c3 0 5 1 7 3 2 2 3 4 3 6z m118 101c0-28-7-54-20-78-14-24-33-43-57-57-24-13-50-20-78-20-28 0-54 7-78 20-24 14-43 33-57 57-13 24-20 50-20 78 0 28 7 54 20 78 14 24 33 43 57 57 24 13 50 20 78 20 28 0 54-7 78-20 24-14 43-33 57-57 13-24 20-50 20-78z m64 0c0 40-9 77-29 110-20 34-46 60-80 80-33 20-70 29-110 29-40 0-77-9-110-29-34-20-60-46-80-80-20-33-29-70-29-110 0-40 9-77 29-110 20-34 46-60 80-80 33-20 70-29 110-29 40 0 77 9 110 29 34 20 60 46 80 80 20 33 29 70 29 110z"/>
    </symbol>
  
    <symbol id="ic-financio" viewBox="0 0 512 512">
      <path d="m375 0l-238 0c-75 0-137 62-137 137l0 238c0 75 62 137 137 137l238 0c75 0 137-62 137-137l0-238c0-75-62-137-137-137z m32 405c-61 0-103-71-118-104l11-4c4-1 7-3 9-7 4-7 2-16-5-21l-52-29c0 0-1-1-2-1-8-3-17 1-21 10l-5 20c-4-4-8-7-13-10-14-10-30-17-46-19 10-48 53-84 102-84 58 0 105 47 105 105 0 4 0 8 0 12l-2 13 13-5c7-4 16-5 24-5 22 0 41 10 53 27l0 76c-12 16-31 26-53 26z m-281-349l260 0c32 0 74 27 74 59l0 164c-14-12-33-19-53-19-6 0-13 1-19 2 0 0 0 0 0-1 0-66-54-121-121-121-60 0-112 46-119 105l-1 1c0 0-1 0-2 0-37 0-70 20-89 49l0-180c0-32 38-59 70-59z m264 402c-116-42-117-114-156-166l11-38 50 28-28 10 3 8c13 28 61 121 137 121 18 0 35-6 48-15-11 25-40 50-65 52z"/>
    </symbol>
  
    <symbol id="ic-forbid" viewBox="0 0 512 512">
      <path d="m256 0c-141 0-256 115-256 256c0 141 115 256 256 256c141 0 256-115 256-256c0-141-115-256-256-256m0 480c-123 0-224-100-224-224c0-124 101-224 224-224c123 0 224 100 224 224c0 124-101 224-224 224m0-384c-88 0-160 72-160 160c0 28 8 54 21 77l216-216c-23-13-49-21-77-21m139 83l-216 216c23 13 49 21 77 21c88 0 160-72 160-160c0-28-8-54-21-77"/>
    </symbol>
  
    <symbol id="ic-quote" viewBox="0 0 512 512">
      <path d="m191 219l-3-5c0 0-2-3-5-1 0 0-20 5-22 36 0 1 0 1 0 2l0 4c0 1 0 1 0 2l0 12c0 4 3 7 6 7l17 0c4 0 7-3 7-7l0-18c0-3-3-6-7-6l-8 0c0-7 3-17 15-21 0 0 1-1 0-5z m46 0l-3-5c0 0-2-3-5-1 0 0-19 5-22 36 0 1 0 1 0 2l0 4c0 1 0 1 0 2l0 12c0 4 3 7 6 7l18 0c3 0 6-3 6-7l0-18c0-3-3-6-6-6l-9 0c0-7 3-17 15-21 0 0 2-1 0-5z m100 81l3 6c0 0 2 2 5 1 0 0 20-5 22-36 0-1 0-2 0-2l0-4c0-1 0-1 0-2l0-13c0-3-3-6-6-6l-17 0c-4 0-7 3-7 6l0 19c0 3 3 6 7 6l8 0c0 7-3 17-15 21 0 0-1 1 0 4z m-46 0l3 6c0 0 2 2 5 1 0 0 19-5 22-36 0-1 0-2 0-2l0-4c0-1 0-1 0-2l0-13c0-3-3-6-6-6l-18 0c-3 0-6 3-6 6l0 19c0 3 3 6 6 6l9 0c0 7-3 17-15 21 0 0-2 1 0 4z m129 200l-317 0c-12 0-22-11-22-23l0-427c0-13 10-23 22-23l280 0 60 59 0 391c0 12-11 23-23 23z m-317-455c-2 0-5 2-5 5l0 427c0 3 3 5 5 5l317 0c3 0 5-2 5-5l0-384-49-48z m255 75c-3 0-5 0-7-2-2-2-3-5-2-8l15-76c0-3 3-6 6-6 3-1 6-1 9 2l61 61c2 2 3 6 2 9-1 3-3 5-7 6l-76 14c0 0-1 0-1 0z m20-66l-9 47 47-9z m-8 378c0 0-6 57 36 59l-316 0c0 0-33-3-37-59z m36 66l0-1 0 1-316 0 0 0c-2 0-40-4-44-66l-1-8 333 0-1 8c0 1-2 29 10 43 5 5 11 8 19 8z m-315-15l284 0c-11-13-13-33-13-44l-301 0c6 39 27 44 30 44z"/>
    </symbol>
  
    <symbol id="ic-purchase-order" viewBox="0 0 512 512">
      <path d="m357 234l-144 0c0 0 0-1 0-1 3-7-1-14-9-17l-35-11c-7-2-14 2-17 9-2 6 2 14 10 16l30 10c-1 4 1 10 1 10l16 76c2 8 7 12 12 14 2-7 9-13 18-13 9 0 17 7 18 16l39 0c1-9 8-16 18-16 8 0 16 6 17 15 6-2 14-6 16-16l16-76c0 0 5-16-6-16z m-43 79l-72 0c-5 0-9-4-9-9 0-4 4-8 9-8l72 0c5 0 8 4 8 8 0 5-3 9-8 9z m0-34l-72 0c-5 0-9-4-9-9 0-5 4-9 9-9l72 0c5 0 8 4 8 9 0 5-3 9-8 9z m-74 83c-11 0-19-9-19-19 0-11 8-19 19-19 10 0 19 8 19 19 0 10-9 19-19 19z m0-30c-6 0-11 5-11 11 0 6 5 10 11 10 6 0 10-4 10-10 0-6-4-11-10-11z m73 30c-11 0-20-9-20-19 0-11 9-19 20-19 10 0 19 8 19 19 0 10-9 19-19 19z m0-30c-6 0-11 5-11 11 0 6 5 10 11 10 5 0 10-4 10-10 0-6-5-11-10-11z m3-146l-21 0 0-42c0-5-4-10-10-10-5 0-9 5-9 10l0 42-23 0c-5 0 0 6 0 6l25 26c4 5 7 5 7 5 0 0 2 0 6-5l25-26c0 0 5-6 0-6z m110 314l-317 0c-12 0-22-11-22-23l0-427c0-13 10-23 22-23l280 0 60 59 0 391c0 12-11 23-23 23z m-317-455c-2 0-5 2-5 5l0 427c0 3 3 5 5 5l317 0c3 0 5-2 5-5l0-384-49-48z m255 75c-3 0-5 0-7-2-2-2-3-5-2-8l15-76c1-3 3-6 6-6 3-1 6-1 9 2l61 61c2 2 3 6 2 9-1 3-3 5-7 6l-76 14c0 0-1 0-1 0z m20-66l-9 47 47-9z m-8 378c0 0-6 57 36 59l-316 0c0 0-33-3-37-59z m36 66l0-1 0 1-316 0 0 0c-2 0-39-4-44-66l0-8 332 0-1 8c0 1-2 29 10 43 5 5 11 8 19 8z m-315-15l284 0c-11-13-13-33-13-44l-301 0c6 39 27 44 30 44z"/>
    </symbol>
  
    <symbol id="ic-invoice" viewBox="0 0 512 512">
      <path d="m424 500l-317 0c-12 0-22-11-22-23l0-427c0-13 10-23 22-23l280 0 59 59 0 391c0 12-10 23-22 23z m-317-455c-2 0-5 2-5 5l0 427c0 3 3 5 5 5l317 0c3 0 5-2 5-5l0-384-49-48z m254 75c-2 0-4 0-6-2-2-2-3-5-2-8l15-76c0-3 3-6 6-6 3-1 6-1 9 2l61 61c2 2 3 6 2 9-1 3-4 5-7 6l-76 14c0 0-1 0-2 0z m21-66l-9 47 47-9z m-8 378c0 0-6 57 36 59l-316 0c0 0-33-3-37-59z m36 66l0-1 0 1-316 0-1 0c-1 0-39-4-43-66l-1-8 333 0-1 8c0 1-2 29 10 43 5 5 11 8 19 8z m-315-15l284 0c-11-13-13-33-13-44l-301 0c6 39 27 44 30 44z m276-308c0 5-5 9-12 9l-197 0c-7 0-12-4-12-9 0-5 5-10 12-10l197 0c7 0 12 5 12 10z m0 58c0 6-5 10-12 10l-197 0c-7 0-12-4-12-10 0-5 5-9 12-9l197 0c7 0 12 4 12 9z m0 59c0 5-5 9-12 9l-197 0c-7 0-12-4-12-9 0-5 5-10 12-10l197 0c7 0 12 5 12 10z m0 63c0 5-5 9-12 9l-197 0c-7 0-12-4-12-9 0-6 5-10 12-10l197 0c7 0 12 4 12 10z"/>
    </symbol>
  
    <symbol id="ic-credit-note" viewBox="0 0 512 512">
      <path d="m405 492l-316 0 0-1c-2 0-36-4-40-62l-1-4 325 0-1 4c0 0-2 30 12 46 5 6 12 9 21 9z m-316-8l294 0c-2-1-3-3-5-5-13-14-13-37-13-47l-309 0c5 47 31 52 33 52z m282-448l-269 0c-7 0-14 6-14 14l0 382 282 0 2 37 24 22 9 0 14 0c7 0 14-6 14-14l0-380-77 15z m-17 328l-197 0c-6 0-12-4-12-9 0-6 6-10 12-10l197 0c7 0 12 4 12 10 0 5-5 9-12 9z m0-63l-197 0c-6 0-12-4-12-9 0-5 6-10 12-10l197 0c7 0 12 5 12 10 0 5-5 9-12 9z m0-58l-197 0c-6 0-12-4-12-10 0-5 6-9 12-9l197 0c7 0 12 4 12 9 0 6-5 10-12 10z m12-68c0 5-5 9-12 9l-197 0c-6 0-12-4-12-9 0-5 6-10 12-10l197 0c7 0 12 5 12 10z m12-139l-7 0 62 61 0-8z"/>
    </symbol>
  
    <symbol id="ic-payment" viewBox="0 0 512 512">
      <path d="m462 371l-412 0c-14 0-25-11-25-26l0-177c0-14 11-26 25-26l412 0c14 0 25 12 25 26l0 177c0 15-11 26-25 26z m-412-205c0 0-1 0-1 2l0 177c0 2 1 3 1 3l412 0c0 0 1-1 1-3l0-177c0-2-1-2-1-2z m67-7c0 0-1 71-77 72l0-59 18-19z m279 0c0 0 1 71 77 72l0-59-18-19z m-279 194c0 0-1-71-77-73l0 60 18 19z m279 0c0 0 1-71 77-73l0 60-18 19z m-133-156l0 7c5 1 9 2 12 3 4 2 6 4 9 7 2 2 3 4 4 6 1 3 2 5 2 7 0 2-1 4-2 5-2 2-4 3-6 3-4 0-7-3-8-7-2-6-5-9-11-11l0 27c6 1 10 3 13 4 3 1 6 3 9 5 2 2 4 5 6 8 1 4 2 7 2 11 0 5-1 10-4 14-2 4-5 8-10 10-4 3-9 5-16 5l0 16c0 3 0 5 0 6-1 1-2 2-4 2-1 0-2-1-3-2 0-1-1-2-1-4l0-18c-5 0-9-1-13-3-4-2-7-4-9-7-3-3-5-5-6-8-1-3-2-6-2-9 0-2 1-4 3-5 1-2 3-3 6-3 2 0 3 1 5 2 1 0 2 2 2 3 2 4 3 7 3 8 1 2 3 4 4 6 2 1 4 2 7 3l0-30c-5-1-10-3-14-5-4-2-7-5-10-8-2-4-3-9-3-14 0-8 2-14 7-18 5-5 11-8 20-9l0-7c0-3 2-5 4-5 3 0 4 2 4 5z m-8 44l0-24c-3 1-6 2-8 4-2 2-3 4-3 8 0 3 1 6 3 8 2 1 4 3 8 4z m8 20l0 28c5-1 8-3 10-6 3-2 4-5 4-9 0-3-1-6-3-8-3-2-6-4-11-5z"/>
    </symbol>
  
    <symbol id="ic-refund" viewBox="0 0 512 512">
      <path d="m462 376l-412 0c-13 0-24-12-24-26l0-177c0-15 11-26 24-26l412 0c14 0 25 11 25 26l0 177c0 14-11 26-25 26z m-412-206c0 0-1 1-1 3l0 177c0 1 1 2 1 2l412 0c0 0 1-1 1-2l0-177c0-2-1-3-1-3z m67-7c0 0 0 71-77 73l0-59 18-20z m280 0c0 0 0 71 76 73l0-59-17-20z m-280 194c0 0 0-71-77-72l0 59 18 19z m280 0c0 0 0-71 76-72l0 59-17 19z m-133-155l0 7c4 0 8 1 11 3 4 1 7 3 9 6 2 2 3 4 5 7 1 2 1 4 1 6 0 2-1 4-2 6-2 1-4 2-6 2-4 0-7-2-8-7-2-5-5-9-10-11l0 27c5 2 9 3 12 4 4 1 6 3 9 5 2 3 5 6 6 9 1 3 2 7 2 11 0 5-1 9-3 13-3 5-6 8-10 11-5 2-10 4-16 5l0 16c0 2-1 4-1 5-1 1-2 2-3 2-2 0-3-1-4-2 0 0 0-2 0-4l0-17c-6-1-10-2-14-4-3-2-7-4-9-7-3-2-4-5-6-8-1-3-1-6-1-8 0-2 0-4 2-6 2-2 4-2 6-2 2 0 4 0 5 1 1 1 2 2 3 4 1 3 2 6 3 8 1 2 2 3 4 5 1 1 4 3 7 3l0-29c-6-2-11-4-15-6-4-2-7-4-9-8-3-4-4-8-4-14 0-7 2-13 7-18 5-5 12-8 20-8l0-7c0-4 2-6 5-6 2 0 4 2 4 6z m-8 44l0-25c-4 1-7 3-9 4-2 2-3 5-3 8 0 4 1 6 3 8 2 2 5 3 9 5z m8 19l0 28c4-1 7-3 10-5 2-3 3-6 3-9 0-4-1-7-3-9-2-2-6-4-10-5z m109-104c0-1-6-24-22-48-21-31-48-49-80-54l-1 0c-1 0-21-4-48 0-34 5-62 21-83 48l-28-23c62-79 157-63 166-61 42 7 78 31 105 71 19 29 26 56 27 57z m-252-146l77 103-111 0z m127 485c-16 0-27-2-30-2-42-7-79-31-105-71-20-29-27-56-27-58l35-9c0 0 7 24 23 48 21 30 48 49 80 54l1 0c0 0 21 4 47 0 35-6 63-22 83-48l29 23c-43 54-100 63-136 63z m126 6l-77-103 110-1z"/>
    </symbol>
  
    <symbol id="ic-bill" viewBox="0 0 512 512">
      <path d="m427 159c-1 0-2 0-3 0-1 0-2 0-3 0l-29 0 0-24-269 0 0 24-28 0c0 0-1 0-1 0-1 0-2 0-2 0-28 0-50-22-50-49 0-27 22-50 50-50 0 0 1 0 2 0 0 0 1 0 1 0l326 0c1 0 2 0 3 0 1 0 2 0 3 0 27 0 49 23 49 50 0 27-22 49-49 49z m-4-29l2 0c0 0 1 0 2 0 11 0 20-9 20-20 0-11-9-20-20-20-1 0-2 0-2 0l-2 0-2 0c0 0 0 0 0 0l-326 0-1 0-1 0c0 0-1 0-1 0-11 0-21 9-21 20 0 11 10 20 21 20 0 0 1 0 1 0l1 0c2-14 14-24 28-24l270 0c15 0 27 10 29 24l0 0c0 0 0 0 0 0z m-2 4c0-16-13-28-29-28l-270 0c-15 0-28 12-28 28l0 25 29 0 0-22 269 0 0 22 29 0z m-298 296l0-204 0 0 0-84-29 0 0 309c0 15 13 28 28 28l1 0z m269-288l0 337 0 0c16 0 29-13 29-28l0-309z m-107 337c-2 0-5-1-8-3-4-4-5-12 0-16l25-28c3-2 6-3 9-3 3 0 6 1 8 3l28 27c5 5 5 12 0 17-4 4-12 5-16 0l-20-19-17 19c-2 2-5 3-9 3z m57 0c-3 0-6-1-8-3-5-4-5-12-1-16l26-28c2-2 5-3 8-3 3 0 6 1 9 3l28 27c4 5 4 12 0 17-5 4-12 5-17 0l-19-19-18 19c-2 2-5 3-8 3z m-111 0c-3 0-6-1-8-3-5-4-5-12-1-16l26-28c2-2 5-3 8-3 3 0 6 1 8 3l28 27c5 5 5 12 1 17-5 4-12 5-17 0l-19-19-18 19c-2 2-5 3-8 3z m-54 0c-3 0-6-1-8-3-5-4-5-12 0-16l25-28c2-2 5-3 8-3 3 0 6 1 9 3l28 27c4 5 5 12 0 17-4 4-12 5-17 0l-19-19-17 19c-3 2-6 3-9 3z m-55 0c-3 0-5-1-8-3-4-4-5-12 0-16l25-28c2-2 5-3 9-3 3 0 6 1 8 3l28 27c5 5 5 12 0 17-4 4-12 5-16 0l-20-19-17 19c-2 2-6 3-9 3z m232-273c0 6-5 11-11 11l-172 0c-6 0-11-5-11-11 0-6 5-11 11-11l172 0c6 0 11 5 11 11z m0 58c0 6-5 11-11 11l-172 0c-6 0-11-5-11-11 0-6 5-11 11-11l172 0c6 0 11 5 11 11z m0 60c0 6-5 11-11 11l-172 0c-6 0-11-5-11-11 0-6 5-11 11-11l172 0c6 0 11 5 11 11z"/>
    </symbol>
  
    <symbol id="ic-journal" viewBox="0 0 512 512">
      <path d="m419 32c-6 0-13 1-19 4l-132 65c-2 1-5 3-8 5-2-2-5-4-7-5l-132-65c-6-3-13-4-19-4-24 0-43 19-43 43l0 286c0 8 2 16 6 23 4 7 10 12 18 16l167 82c7 3 14 3 21 0l167-82c7-4 14-9 18-16 4-7 6-15 6-23l0-286c0-24-19-43-43-43l0 0z m-175 108l0 292c0 5-5 8-10 6l-137-67c-4-2-6-6-6-10l0-286c0-6 5-11 11-11 1 0 3 0 5 1 0 0 131 65 131 65 4 2 6 5 6 10z m186-65l0 286c0 4-2 8-6 10l-137 67c-5 2-10-1-10-6l0-292c0-5 2-8 6-10l131-65c2-1 3-1 5-1 6 0 11 5 11 11z m-214 107l-81-40c-8-4-18 0-22 7-4 8 0 18 8 22l80 40c3 1 5 1 7 1 6 0 12-3 15-9 4-8 1-17-7-21z m0 110l-81-39c-8-4-18-1-22 7-4 8 0 18 8 22l80 39c3 1 5 2 7 2 6 0 12-3 15-9 4-8 1-18-7-22z m170-150l-81 40c-8 4-11 13-7 21 3 6 8 9 14 9 3 0 5 0 8-1l80-40c8-4 11-14 8-22-4-7-14-11-22-7z m0 111l-81 39c-8 4-11 14-7 22 3 6 8 9 14 9 3 0 5-1 8-2l80-39c8-4 11-14 8-22-4-8-14-11-22-7z"/>
    </symbol>
  
    <symbol id="ic-withdrawal" viewBox="0 0 512 512">
      <path d="m446 118l-29 0 0-55-319 0 0 55-29 0 0-85 377 0z m-83-32l-211 0c-17 0-32 9-32 22l0 362c0 12 15 22 32 22l211 0c18 0 32-10 32-22l0-362c0-13-14-22-32-22z m4 298c-22 3-76 17-81 88l-59 0c-5-68-55-84-79-88l0-276c0-1 2-2 4-2l211 0c2 0 4 1 4 2z m-31-176c-1 0-3 0-6 0l-19 0c-1-8-3-14-6-19-3-6-7-10-13-12-5-3-10-5-16-5-5 0-9 1-13 3-4 2-7 4-10 7-3 3-5 7-6 10-2 4-3 9-5 16l-32 0c2-7 6-11 13-13 5-1 8-4 8-9 0-3-1-5-3-7-2-2-4-3-6-3-3 0-5 1-8 2-3 1-6 3-8 5-4 3-6 7-8 11-2 3-3 8-3 14l-8 0c-5 0-7 1-7 5 0 3 2 4 7 4l8 0c1 11 4 19 10 25 5 5 12 8 21 8 7 0 13-1 17-4 4-3 8-7 10-11 2-5 4-11 6-18l36 0c-1 4-2 7-4 9-2 2-4 3-6 4-3 1-6 3-10 4-2 1-4 2-5 3-1 2-1 4-1 6 0 3 1 5 3 7 2 2 4 3 6 3 4 0 7-1 11-2 3-1 6-4 10-7 3-3 5-6 8-11 2-4 3-10 4-16l21 0c2 0 4 0 5-1 1 0 1-2 1-4 0-2 0-3-2-4z m-102 20c-3 2-6 3-10 3-4 0-7-1-9-4-2-2-4-5-5-10l29 0c-1 5-3 8-5 11z m28-20c2-6 4-10 6-12 3-3 6-5 11-5 4 0 7 2 10 5 4 2 6 6 7 12z"/>
    </symbol>
  
    <symbol id="ic-deposit" viewBox="0 0 512 512">
      <path d="m195 217c2 3 4 5 7 8l-6 10c-1 2-1 3-1 4 0 0 0 1 1 2 1 0 2 0 3 0 0-1 1-2 2-3l6-10c4 2 8 3 12 3 4 0 7-1 11-3 3-2 5-4 7-7 1-3 2-5 3-8 0-2 0-5-1-7-1-3-2-5-3-7-2-2-4-4-7-7l11-17c2 3 3 7 2 11-1 3 0 5 2 7 2 1 3 1 5 1 1-1 3-2 3-3 1-1 2-3 2-4 0-2 0-4 0-6-1-3-2-6-3-8-2-2-4-4-7-6l3-4c1-2 1-4 0-5-2-1-4-1-5 2l-3 4c-5-3-11-4-15-3-5 1-9 4-12 9-2 3-3 7-3 10 0 3 1 6 3 9 1 2 4 5 7 9l-12 18c-1-1-2-3-3-5 0-1 0-3 0-4 0-2 0-4 1-6 0-2 0-3 0-4-1-1-1-2-3-3-1 0-3-1-4 0-2 0-3 1-4 2-1 2-2 4-2 6-1 3 0 5 0 8 1 2 2 5 3 7z m28-42c1-2 3-3 5-4 2 0 4 0 7 1l-10 15c-2-2-3-4-3-6-1-2-1-4 1-6z m0 27c2 3 4 5 4 7 1 2 1 5-1 7-1 2-3 4-6 4-2 1-5 1-8 0z m177 21c2-8-1-15-8-19l-257-157c-9-5-20-2-26 7l-67 110c-6 9-3 21 5 26l76 46-36 20 0 226 374 0 0-226z m23 41l-72 43 38-62z m-342-131l19-31c36 17 60-6 67-15l176 107c-5 11-15 42 16 66l-19 31c-37-17-60 8-67 17l-175-107c4-10 16-43-17-68z m212 208l-19 11-149-88 22-13z m-181-55l137 81-137 81z m33 171l129-76 128 76z m291-9l-138-81 138-81z"/>
    </symbol>
  
    <symbol id="ic-link" viewBox="0 0 512 512">
      <path d="m503 9c-13-12-33-12-46 0l-65 66c-27-18-57-27-88-27c-41 0-83 16-113 47l-96 96c-55 55-62 139-20 201l-66 65c-12 13-12 33 0 46c7 6 15 9 23 9c8 0 16-3 23-9l65-66c26 18 57 27 88 27c40 0 82-16 113-47l96-96c55-55 61-139 20-201l66-65c12-13 12-33 0-46z m-103 199c0 26-10 50-28 68l-96 96c-18 18-44 28-68 28c-14 0-28-4-41-10l46-47c13-13 13-33 0-46c-11-12-31-12-44 0l-47 48c-6-13-10-26-10-41c0-26 10-50 28-68l95-96c18-18 43-28 69-28c14 0 28 4 41 10l-49 48c-12 13-12 33 0 46c7 6 15 9 23 9c8 0 16-3 23-9l48-49c6 13 10 26 10 41z"/>
    </symbol>
  
    <symbol id="ic-clock" viewBox="0 0 512 512">
      <path d="m288 224l0-96l-64 0l0 160l128 0l0-64z m-32-224c-141 0-256 115-256 256c0 141 115 256 256 256c141 0 256-115 256-256c0-141-115-256-256-256z m0 448c-106 0-192-86-192-192c0-106 86-192 192-192c106 0 192 86 192 192c0 106-86 192-192 192z"/>
    </symbol>
  
    <symbol id="ic-check" viewBox="0 0 512 512">
      <path d="m477 162c0 7-2 14-8 19l-206 207-39 39c-6 5-12 8-20 8-7 0-14-3-19-8l-142-142c-6-6-8-12-8-20 0-7 2-14 8-19l38-39c6-5 12-8 20-8 7 0 14 3 19 8l84 84 188-188c5-5 12-8 19-8 8 0 14 3 20 8l38 39c6 6 8 12 8 20z"/>
    </symbol>
  
    <symbol id="ic-times" viewBox="0 0 512 512">
      <path d="m426 378c0 7-3 14-8 19l-39 39c-5 5-12 8-20 8-7 0-14-3-19-8l-84-84-84 84c-5 5-12 8-19 8-8 0-15-3-20-8l-39-39c-5-5-8-12-8-19 0-8 3-14 8-20l84-84-84-84c-5-5-8-12-8-19 0-8 3-14 8-20l39-38c5-6 12-8 20-8 7 0 14 2 19 8l84 84 84-84c5-6 12-8 19-8 8 0 15 2 20 8l39 38c5 6 8 12 8 20 0 7-3 14-8 19l-84 84 84 84c5 6 8 12 8 20z"/>
    </symbol>
  
    <symbol id="ic-user" viewBox="0 0 512 512">
      <path d="m457 401c0 23-7 41-21 55-14 13-32 19-55 19l-250 0c-23 0-41-6-55-19-14-14-21-32-21-55 0-10 0-20 1-29 1-10 2-20 4-31 2-11 4-22 7-31 3-10 8-19 13-28 5-9 11-17 17-23 7-7 15-12 25-16 9-3 20-5 32-5 1 0 5 2 12 6 6 4 13 9 21 14 8 5 18 9 31 13 13 4 25 6 38 6 13 0 25-2 38-6 13-4 23-8 31-13 8-5 15-10 21-14 7-4 11-6 12-6 12 0 23 2 32 5 10 4 18 9 25 16 6 6 12 14 17 23 5 9 10 18 13 28 3 9 5 20 7 31 2 11 3 21 4 31 1 9 1 19 1 29z m-91-255c0 31-11 56-32 78-22 21-48 32-78 32-30 0-56-11-78-32-21-22-32-47-32-78 0-30 11-56 32-77 22-22 48-32 78-32 30 0 56 10 78 32 21 21 32 47 32 77z"/>
    </symbol>
  
    <symbol id="ic-building" viewBox="0 0 512 512">
      <path d="m421 0c5 0 9 2 12 5 4 4 6 8 6 13l0 476c0 5-2 9-6 13-3 3-7 5-12 5l-366 0c-5 0-9-2-13-5-4-4-5-8-5-13l0-476c0-5 1-9 5-13 4-3 8-5 13-5z m-238 82l0 19c0 2 1 4 2 6 2 2 4 3 7 3l18 0c3 0 5-1 7-3 2-2 2-4 2-6l0-19c0-2 0-5-2-6-2-2-4-3-7-3l-18 0c-3 0-5 1-7 3-1 1-2 4-2 6z m0 73l0 19c0 2 1 5 2 6 2 2 4 3 7 3l18 0c3 0 5-1 7-3 2-1 2-4 2-6l0-19c0-2 0-4-2-6-2-2-4-3-7-3l-18 0c-3 0-5 1-7 3-1 2-2 4-2 6z m0 74l0 18c0 3 1 5 2 6 2 2 4 3 7 3l18 0c3 0 5-1 7-3 2-1 2-3 2-6l0-18c0-3 0-5-2-7-2-2-4-3-7-3l-18 0c-3 0-5 1-7 3-1 2-2 4-2 7z m0 73l0 18c0 3 1 5 2 7 2 1 4 2 7 2l18 0c3 0 5-1 7-2 2-2 2-4 2-7l0-18c0-3 0-5-2-7-2-2-4-2-7-2l-18 0c-3 0-5 0-7 2-1 2-2 4-2 7z m-37 91l0-18c0-3-1-5-2-7-2-1-4-2-7-2l-18 0c-3 0-5 1-7 2-1 2-2 4-2 7l0 18c0 3 1 5 2 7 2 1 4 2 7 2l18 0c3 0 5-1 7-2 1-2 2-4 2-7z m0-73l0-18c0-3-1-5-2-7-2-2-4-2-7-2l-18 0c-3 0-5 0-7 2-1 2-2 4-2 7l0 18c0 3 1 5 2 7 2 1 4 2 7 2l18 0c3 0 5-1 7-2 1-2 2-4 2-7z m0-73l0-18c0-3-1-5-2-7-2-2-4-3-7-3l-18 0c-3 0-5 1-7 3-1 2-2 4-2 7l0 18c0 3 1 5 2 6 2 2 4 3 7 3l18 0c3 0 5-1 7-3 1-1 2-3 2-6z m0-73l0-19c0-2-1-4-2-6-2-2-4-3-7-3l-18 0c-3 0-5 1-7 3-1 2-2 4-2 6l0 19c0 2 1 5 2 6 2 2 4 3 7 3l18 0c3 0 5-1 7-3 1-1 2-4 2-6z m0-73l0-19c0-2-1-5-2-6-2-2-4-3-7-3l-18 0c-3 0-5 1-7 3-1 1-2 4-2 6l0 19c0 2 1 4 2 6 2 2 4 3 7 3l18 0c3 0 5-1 7-3 1-2 2-4 2-6z m147 365l0-55c0-2-1-4-3-6-2-2-4-3-7-3l-91 0c-3 0-5 1-7 3-1 2-2 4-2 6l0 55c0 3 1 5 2 7 2 2 4 2 7 2l91 0c3 0 5 0 7-2 2-2 3-4 3-7z m0-146l0-18c0-3-1-5-3-7-2-2-4-2-7-2l-18 0c-3 0-5 0-6 2-2 2-3 4-3 7l0 18c0 3 1 5 3 7 1 1 3 2 6 2l18 0c3 0 5-1 7-2 2-2 3-4 3-7z m0-73l0-18c0-3-1-5-3-7-2-2-4-3-7-3l-18 0c-3 0-5 1-6 3-2 2-3 4-3 7l0 18c0 3 1 5 3 6 1 2 3 3 6 3l18 0c3 0 5-1 7-3 2-1 3-3 3-6z m0-73l0-19c0-2-1-4-3-6-2-2-4-3-7-3l-18 0c-3 0-5 1-6 3-2 2-3 4-3 6l0 19c0 2 1 5 3 6 1 2 3 3 6 3l18 0c3 0 5-1 7-3 2-1 3-4 3-6z m0-73l0-19c0-2-1-5-3-6-2-2-4-3-7-3l-18 0c-3 0-5 1-6 3-2 1-3 4-3 6l0 19c0 2 1 4 3 6 1 2 3 3 6 3l18 0c3 0 5-1 7-3 2-2 3-4 3-6z m73 292l0-18c0-3-1-5-3-7-2-1-4-2-6-2l-19 0c-2 0-5 1-6 2-2 2-3 4-3 7l0 18c0 3 1 5 3 7 1 1 4 2 6 2l19 0c2 0 4-1 6-2 2-2 3-4 3-7z m0-73l0-18c0-3-1-5-3-7-2-2-4-2-6-2l-19 0c-2 0-5 0-6 2-2 2-3 4-3 7l0 18c0 3 1 5 3 7 1 1 4 2 6 2l19 0c2 0 4-1 6-2 2-2 3-4 3-7z m0-73l0-18c0-3-1-5-3-7-2-2-4-3-6-3l-19 0c-2 0-5 1-6 3-2 2-3 4-3 7l0 18c0 3 1 5 3 6 1 2 4 3 6 3l19 0c2 0 4-1 6-3 2-1 3-3 3-6z m0-73l0-19c0-2-1-4-3-6-2-2-4-3-6-3l-19 0c-2 0-5 1-6 3-2 2-3 4-3 6l0 19c0 2 1 5 3 6 1 2 4 3 6 3l19 0c2 0 4-1 6-3 2-1 3-4 3-6z m0-73l0-19c0-2-1-5-3-6-2-2-4-3-6-3l-19 0c-2 0-5 1-6 3-2 1-3 4-3 6l0 19c0 2 1 4 3 6 1 2 4 3 6 3l19 0c2 0 4-1 6-3 2-2 3-4 3-6z"/>
    </symbol>
  
    <symbol id="ic-search" viewBox="0 0 512 512">
      <path d="m445 387l-85-86c14-24 21-51 21-78 0-88-71-159-158-159-88 0-159 71-159 159 0 88 71 159 159 159 28 0 55-8 80-23l84 86c2 2 5 3 7 3 3 0 6-1 8-3l43-44c4-4 4-10 0-14z m-222-261c53 0 96 43 96 97 0 53-43 97-96 97-54 0-97-44-97-97 0-54 43-97 97-97z"/>
    </symbol>
  
    <symbol id="ic-email" viewBox="0 0 512 512">
      <path d="m512 203l0 227c0 12-4 23-13 32c-9 9-20 13-33 13l-420 0c-13 0-24-4-33-13c-9-9-13-20-13-32l0-227c8 9 18 17 29 25c69 47 116 79 142 98c11 8 20 15 26 19c7 4 16 9 27 14c12 4 22 7 32 7l0 0c10 0 20-3 32-7c11-5 20-10 27-14c6-4 15-11 26-19c33-23 80-56 142-98c11-8 21-16 29-25z m0-84c0 15-5 29-14 43c-9 14-21 25-35 35c-71 50-116 81-134 93c-1 1-6 4-12 9c-6 4-11 8-15 11c-4 2-9 5-15 9c-6 3-11 6-16 8c-6 1-10 2-15 2l0 0c-5 0-9-1-15-2c-5-2-10-5-16-8c-6-4-11-7-15-9c-4-3-9-7-15-11c-6-5-11-8-12-9c-18-12-43-30-75-52c-33-23-52-36-59-41c-12-8-23-19-33-33c-11-14-16-27-16-39c0-15 4-27 12-37c8-10 19-15 34-15l420 0c13 0 23 5 32 14c9 9 14 19 14 32z"/>
    </symbol>
  
    <symbol id="ic-ios-list-outline" viewBox="0 0 512 512">
      <path d="m432 80l0 352-352 0 0-352 352 0m16-16l-384 0 0 384 384 0z m-256 88l192 0 0 16-192 0z m0 96l192 0 0 16-192 0z m0 96l192 0 0 16-192 0z m-32-184c0 9-7 16-16 16-9 0-16-7-16-16 0-9 7-16 16-16 9 0 16 7 16 16z m0 96c0 9-7 16-16 16-9 0-16-7-16-16 0-9 7-16 16-16 9 0 16 7 16 16z m0 96c0 9-7 16-16 16-9 0-16-7-16-16 0-9 7-16 16-16 9 0 16 7 16 16z"/>
    </symbol>
  
    <symbol id="ic-progress-2" viewBox="0 0 512 512">
      <path d="m512 205c0 0 0 128 0 128c0 14-5 26-15 36c-10 10-22 15-36 15c0 0-410 0-410 0c-13 0-25-5-36-15c-10-10-15-22-15-36c0 0 0-154 0-154c0-13 5-25 15-36c11-10 23-15 36-15c0 0 410 0 410 0c14 0 26 5 36 15c10 11 15 23 15 36c0 0 0 26 0 26m-51 128c0 0 0-154 0-154c0 0-410 0-410 0c0 0 0 154 0 154c0 0 410 0 410 0m-384-26c0 0 0-101 0-101c0 0 102 0 102 0c0 0 0 101 0 101c0 0-102 0-102 0m128 0c0 0 0-101 0-101c0 0 102 0 102 0c0 0 0 101 0 101c0 0-102 0-102 0"/>
    </symbol>
  
    <symbol id="ic-sort-desc" viewBox="0 0 512 512">
      <path d="m402 311c0 5-2 9-5 13l-128 128c-4 3-8 5-13 5-5 0-9-2-13-5l-128-128c-3-4-5-8-5-13 0-5 2-9 5-13 4-4 8-5 13-5l256 0c5 0 9 1 13 5 3 4 5 8 5 13z"/>
    </symbol>
  
    <symbol id="ic-sort-asc" viewBox="0 0 512 512">
      <path d="m402 201c0 5-2 9-5 13-4 4-8 5-13 5l-256 0c-5 0-9-1-13-5-3-4-5-8-5-13 0-5 2-9 5-13l128-128c4-3 8-5 13-5 5 0 9 2 13 5l128 128c3 4 5 8 5 13z"/>
    </symbol>
  
    <symbol id="ic-sort" viewBox="0 0 512 512">
      <path d="m402 311c0 5-2 9-5 13l-128 128c-4 3-8 5-13 5-5 0-9-2-13-5l-128-128c-3-4-5-8-5-13 0-5 2-9 5-13 4-4 8-5 13-5l256 0c5 0 9 1 13 5 3 4 5 8 5 13z m0-110c0 5-2 9-5 13-4 4-8 5-13 5l-256 0c-5 0-9-1-13-5-3-4-5-8-5-13 0-5 2-9 5-13l128-128c4-3 8-5 13-5 5 0 9 2 13 5l128 128c3 4 5 8 5 13z"/>
    </symbol>
  
    <symbol id="ic-transaction4-09" viewBox="0 0 512 512">
      <path d="m188 202c2 2 5 3 8 5 3 1 6 2 10 3l0 13c0 2 0 3 1 4 0 0 1 1 2 1 2 0 3-1 3-2 0 0 1-2 1-4l0-13c4 0 9-1 12-3 4-2 6-5 8-9 2-3 3-7 3-10 0-3-1-6-2-9-1-2-3-5-5-7-2-1-4-3-6-4-3-1-6-2-10-3l0-21c4 2 6 4 8 9 1 3 3 5 6 5 2 0 3-1 5-2 1-1 1-3 1-4 0-2 0-3-1-5-1-2-2-4-3-6-2-2-5-4-7-5-3-1-6-2-9-2l0-5c0-3-2-5-4-5-2 0-3 2-3 5l0 5c-7 1-12 3-16 7-4 3-5 8-5 14 0 4 0 8 2 11 2 3 5 5 8 6 3 2 7 3 11 5l0 23c-2-1-4-1-5-3-2-1-3-2-3-4-1-1-2-3-3-6 0-1-1-2-2-3-1-1-2-1-4-1-2 0-3 1-5 2-1 1-1 3-1 4 0 2 0 5 1 7 1 2 2 4 4 7z m25-25c3 2 6 3 8 4 1 2 2 4 2 7 0 3-1 5-3 7-1 3-4 4-7 5l0-23z m-14-18c-1-2-2-4-2-6 0-3 1-5 2-7 2-1 4-2 7-3l0 19c-3-1-5-2-7-3z m99 139c0 3 0 5 2 6 1 2 4 3 7 4l0-19c-3 1-5 2-7 3-2 1-2 4-2 6z m23 29c-2-1-4-3-8-4l0 22c3 0 6-2 8-4 2-2 3-4 3-7 0-3-1-5-3-7z m148-97l-80 0 0-125c0-12-9-21-20-21l-325 0c-10 0-19 9-19 21l0 139c0 12 9 21 19 21l82 0 0 125c0 11 9 20 19 20l324 0c11 0 20-9 20-20l0-139c0-12-9-21-20-21z m-426-37l0-39c43-4 52-38 54-51l221 0c1 13 10 46 52 51l0 40c-30 3-43 21-49 36l-176 0c-9 0-17 7-19 16l-29 0c-2-12-9-48-54-53z m290 150c-1 3-4 6-7 8-4 2-8 4-13 4l0 13c0 2 0 3-1 4 0 1-1 1-2 1-1 0-2 0-3-1 0 0 0-2 0-3l0-14c-4 0-8-1-11-3-3-1-5-3-7-5-2-2-4-4-4-6-1-3-2-5-2-7 0-2 1-3 2-5 1-1 3-1 5-1 1 0 3 0 4 1 1 0 1 1 2 3 1 2 1 4 2 6 1 1 2 3 3 4 2 1 3 2 6 3l0-24c-5-1-9-2-12-4-3-1-5-4-7-7-2-2-3-6-3-10 0-6 2-11 6-15 3-3 9-6 16-6l0-6c0-2 1-4 3-4 2 0 3 2 3 4l0 6c4 0 7 1 9 2 3 1 5 3 7 5 2 2 3 4 4 5 0 2 1 4 1 5 0 2-1 4-2 5-1 1-3 2-4 2-4 0-6-2-7-6-1-4-4-7-8-8l0 21c4 1 8 2 10 3 3 1 5 2 7 4 2 2 3 4 5 7 1 2 1 5 1 8 0 4-1 8-3 11z m-253-5c-1 0-2 0-3 0-7-1-12-4-12-4l0 0c-8-5-13-11-15-21-2-7-1-14-1-14l-10-1c0 1 0 8 2 17 3 12 9 21 19 27 1 0 3 2 7 3 4 2 8 3 12 3l-1 20 35-22-33-27z m396-156c-3-12-10-21-20-26 0-1-3-2-7-4-3-1-7-2-12-3l1-20-35 23 33 27 1-20c1 0 2 0 3 0 7 2 11 5 11 5l1 0c7 4 12 11 15 20 1 8 1 14 1 14l9 1c0 0 1-8-1-17z"/>
    </symbol>
  
    <symbol id="ic-paypal" viewBox="0 0 512 512">
      <path d="m471 185c3 16 3 35-2 58-16 84-70 127-161 127l-13 0c-4 0-9 1-12 4-4 4-6 8-7 13l-1 5-16 99 0 4c-1 5-4 9-7 12-4 3-8 5-13 5l-72 0c-4 0-7-1-9-4-3-3-3-7-3-11 2-10 4-26 8-48 3-21 6-37 7-48 2-10 5-26 8-47 3-22 6-38 8-48 1-7 5-11 12-11l37 0c26 1 48-1 68-6 33-7 61-21 82-41 19-18 34-42 44-70 5-14 8-26 10-38 0-1 1-2 1-2 0-1 0-1 1-1 0 0 1 1 2 1 15 12 24 27 28 47z m-50-81c0 20-4 43-13 67-15 45-44 75-86 90-22 8-46 12-72 12 0 1-9 1-26 1l-25-1c-19 0-31 10-34 28-1 1-9 52-24 151-1 2-2 3-4 3l-84 0c-4 0-8-1-11-5-2-3-3-6-3-11l66-420c1-5 4-10 8-14 5-3 9-5 15-5l171 0c6 0 16 1 28 4 12 2 22 5 32 9 20 8 36 19 46 35 11 16 16 34 16 56z"/>
    </symbol>
  
</svg>
